G04*
G04 #@! TF.GenerationSoftware,Altium Limited,Altium Designer,22.0.2 (36)*
G04*
G04 Layer_Color=16711935*
%FSLAX25Y25*%
%MOIN*%
G70*
G04*
G04 #@! TF.SameCoordinates,2399AC83-C245-47A7-85CA-B2C80BF99C82*
G04*
G04*
G04 #@! TF.FilePolarity,Positive*
G04*
G01*
G75*
%ADD10C,0.01000*%
%ADD12C,0.00787*%
%ADD14C,0.00500*%
%ADD16C,0.00394*%
%ADD17C,0.00591*%
%ADD97C,0.00800*%
%ADD98C,0.00300*%
D10*
X106063Y163961D02*
X117874D01*
X106063D02*
Y176362D01*
X117874D01*
Y163961D02*
Y176362D01*
D12*
X180905Y160000D02*
G03*
X180905Y160000I-394J0D01*
G01*
X85440Y178476D02*
G03*
X85440Y178476I-394J0D01*
G01*
X308312Y201724D02*
G03*
X308312Y201724I-394J0D01*
G01*
X100169Y220543D02*
Y298492D01*
Y220543D02*
X210012D01*
Y298492D01*
X100169D02*
X210012D01*
D14*
X331559Y163488D02*
X343370Y153055D01*
X331559Y174512D02*
X343370Y184945D01*
X331559Y163488D02*
Y174512D01*
X343370Y153055D02*
X392583D01*
Y184945D01*
X343370D02*
X392583D01*
X47512Y169488D02*
X57945Y181299D01*
X26055D02*
X36488Y169488D01*
X47512D01*
X57945Y181299D02*
Y230512D01*
X26055D02*
X57945D01*
X26055Y181299D02*
Y230512D01*
X331559Y202488D02*
X343370Y192055D01*
X331559Y213512D02*
X343370Y223945D01*
X331559Y202488D02*
Y213512D01*
X343370Y192055D02*
X392583D01*
Y223945D01*
X343370D02*
X392583D01*
X331559Y280488D02*
X343370Y270055D01*
X331559Y291512D02*
X343370Y301945D01*
X331559Y280488D02*
Y291512D01*
X343370Y270055D02*
X392583D01*
Y301945D01*
X343370D02*
X392583D01*
X331559Y241488D02*
X343370Y231055D01*
X331559Y252512D02*
X343370Y262945D01*
X331559Y241488D02*
Y252512D01*
X343370Y231055D02*
X392583D01*
Y262945D01*
X343370D02*
X392583D01*
X331559Y124488D02*
X343370Y114055D01*
X331559Y135512D02*
X343370Y145945D01*
X331559Y124488D02*
Y135512D01*
X343370Y114055D02*
X392583D01*
Y145945D01*
X343370D02*
X392583D01*
X331559Y85488D02*
X343370Y75055D01*
X331559Y96512D02*
X343370Y106945D01*
X331559Y85488D02*
Y96512D01*
X343370Y75055D02*
X392583D01*
Y106945D01*
X343370D02*
X392583D01*
X239968Y222913D02*
X242173D01*
X239968Y227087D02*
X242173D01*
X239968Y222913D02*
Y227087D01*
X242173Y222913D02*
Y227087D01*
X220299Y171153D02*
X223843D01*
X220299Y177847D02*
X223843D01*
X220299Y171153D02*
Y177847D01*
X223843Y171153D02*
Y177847D01*
X239409Y165146D02*
Y167350D01*
X235236Y165146D02*
Y167350D01*
Y165146D02*
X239409D01*
X235236Y167350D02*
X239409D01*
X68708Y154067D02*
Y170602D01*
X73038Y174933D01*
X85243D01*
X89574Y170602D01*
Y154067D02*
Y170602D01*
X68708Y154067D02*
X89574D01*
X93991Y170453D02*
X100290D01*
X93991Y157854D02*
Y170453D01*
Y157854D02*
X100290D01*
Y170453D01*
X232299Y208347D02*
X235842D01*
X232299Y201654D02*
X235842D01*
Y208347D01*
X232299Y201654D02*
Y208347D01*
X291580Y177315D02*
Y193850D01*
X295911Y198181D01*
X308116D01*
X312446Y193850D01*
Y177315D02*
Y193850D01*
X291580Y177315D02*
X312446D01*
X225417Y200228D02*
Y203772D01*
X218724Y200228D02*
Y203772D01*
Y200228D02*
X225417D01*
X218724Y203772D02*
X225417D01*
X228421Y160129D02*
X234720D01*
X228421Y147530D02*
Y160129D01*
Y147530D02*
X234720D01*
Y160129D01*
D16*
X141427Y173803D02*
G03*
X141427Y173803I-557J0D01*
G01*
X183071Y155000D02*
X223071D01*
Y165000D01*
X183071D02*
X223071D01*
X183071Y155000D02*
Y165000D01*
X235004Y215917D02*
Y218083D01*
X239138Y215917D02*
Y218083D01*
X235004D02*
X239138D01*
X235004Y215917D02*
X239138D01*
X233988Y222933D02*
Y227067D01*
X236154Y222933D02*
Y227067D01*
X233988Y222933D02*
X236154D01*
X233988Y227067D02*
X236154D01*
X246638Y158917D02*
Y161083D01*
X242504Y158917D02*
Y161083D01*
Y158917D02*
X246638D01*
X242504Y161083D02*
X246638D01*
X251988Y166933D02*
X254153D01*
X251988Y171067D02*
X254153D01*
X251988Y166933D02*
Y171067D01*
X254153Y166933D02*
Y171067D01*
X109362Y183575D02*
X115661D01*
X109362Y180425D02*
Y183575D01*
Y180425D02*
X115661D01*
Y183575D01*
X139098Y167307D02*
Y175575D01*
X147366Y167307D02*
Y175575D01*
X139098D02*
X147366D01*
X139098Y167307D02*
X147366D01*
X166362Y167425D02*
X172661D01*
Y170575D01*
X166362D02*
X172661D01*
X166362Y167425D02*
Y170575D01*
D17*
X236537Y179903D02*
Y196045D01*
X250711D01*
Y179903D02*
Y196045D01*
X236537Y179903D02*
X250711D01*
D97*
X35992Y30039D02*
Y345000D01*
X12370Y53661D02*
X406071D01*
X382449Y30039D02*
Y345000D01*
X12370Y321378D02*
X406071D01*
D98*
X244125Y187974D02*
X245791D01*
X246124Y188307D01*
Y188974D01*
X245791Y189307D01*
X244125D01*
X246124Y189973D02*
Y190640D01*
Y190307D01*
X244125D01*
X244458Y189973D01*
X139689Y167366D02*
Y169366D01*
X140355Y168699D01*
X141022Y169366D01*
Y167366D01*
X143021D02*
X141688D01*
X143021Y168699D01*
Y169032D01*
X142688Y169366D01*
X142022D01*
X141688Y169032D01*
M02*
