M48
;Layer_Color=9474304
;FILE_FORMAT=2:4
INCH,LZ
;TYPE=PLATED
T1F00S00C0.0100
T2F00S00C0.0140
T3F00S00C0.0200
T4F00S00C0.0280
T5F00S00C0.0402
T6F00S00C0.1772
%
T01
X024607Y0164
Y0167
X024907
Y0164
X024857Y01737
X024524Y0177
X024457Y0184
X024624
X02429
X024124
X022807Y0207
Y021
X022507
Y0207
T02
X022907Y0233
X023274
X02364
X024007
T03
X025407Y0188
X024607Y0201
T04
X0032Y0135
Y0143
X0042
Y0135
X0052
Y0143
X0062
Y0135
X0072
Y0143
X0082
Y0135
X0092
Y0143
X0102
Y0135
X0112
Y0143
X029807Y0161
Y0169
X028907
Y0161
X028007
Y0169
X027107
Y0161
X026207
Y0169
X023607Y0173
X022921Y016716
X015951Y0169
X013407
X010107Y0182
X008907
T05
X018807Y016
X019807
X020807
X021807
T06
X003599Y005366
X0262Y0086
X03479Y0091
X037624
Y013
X03479
X038245Y005366
X037624Y0169
X03479
Y0208
X037624
Y0247
X03479
Y0286
X037624
X0042Y021417
Y018583
X003599Y032138
X038245
M30
