G04*
G04 #@! TF.GenerationSoftware,Altium Limited,Altium Designer,22.0.2 (36)*
G04*
G04 Layer_Color=32768*
%FSLAX25Y25*%
%MOIN*%
G70*
G04*
G04 #@! TF.SameCoordinates,2399AC83-C245-47A7-85CA-B2C80BF99C82*
G04*
G04*
G04 #@! TF.FilePolarity,Positive*
G04*
G01*
G75*
%ADD16C,0.00394*%
%ADD99C,0.00197*%
%ADD100C,0.00004*%
D16*
X235988Y217000D02*
X238154D01*
X237071Y215917D02*
Y218083D01*
X233988Y225000D02*
X236154D01*
X235071Y223917D02*
Y226083D01*
X243488Y160000D02*
X245654D01*
X244571Y158917D02*
Y161083D01*
X96232Y188059D02*
Y304240D01*
Y188059D02*
X214146D01*
Y304240D01*
X96232D02*
X214146D01*
X253071Y167917D02*
Y170083D01*
X251988Y169000D02*
X254153D01*
D99*
X113890Y182000D02*
G03*
X113890Y182000I-1378J0D01*
G01*
X170890Y169000D02*
G03*
X170890Y169000I-1378J0D01*
G01*
X330575Y152071D02*
X393567D01*
Y185929D01*
X330575D02*
X393567D01*
X330575Y152071D02*
Y185929D01*
X58929Y168504D02*
Y231496D01*
X25071D02*
X58929D01*
X25071Y168504D02*
Y231496D01*
Y168504D02*
X58929D01*
X182087Y154016D02*
X224055D01*
Y165984D01*
X182087D02*
X224055D01*
X182087Y154016D02*
Y165984D01*
X330575Y191071D02*
X393567D01*
Y224929D01*
X330575D02*
X393567D01*
X330575Y191071D02*
Y224929D01*
Y269071D02*
X393567D01*
Y302929D01*
X330575D02*
X393567D01*
X330575Y269071D02*
Y302929D01*
Y230071D02*
X393567D01*
Y263929D01*
X330575D02*
X393567D01*
X330575Y230071D02*
Y263929D01*
Y113071D02*
X393567D01*
Y146929D01*
X330575D02*
X393567D01*
X330575Y113071D02*
Y146929D01*
Y74071D02*
X393567D01*
Y107929D01*
X330575D02*
X393567D01*
X330575Y74071D02*
Y107929D01*
X233921Y215425D02*
Y218575D01*
X240220Y215425D02*
Y218575D01*
X233921D02*
X240220D01*
X233921Y215425D02*
X240220D01*
X233496Y222047D02*
Y227953D01*
X236646Y222047D02*
Y227953D01*
X233496Y222047D02*
X236646D01*
X233496Y227953D02*
X236646D01*
X238906Y228740D02*
X243236D01*
X238906Y221260D02*
X243236D01*
X238906D02*
Y228740D01*
X243236Y221260D02*
Y228740D01*
X219256Y180268D02*
X224886D01*
X219256Y168732D02*
X224886D01*
X219256D02*
Y180268D01*
X224886Y168732D02*
Y180268D01*
X233583Y164083D02*
Y168413D01*
X241063Y164083D02*
Y168413D01*
X233583Y164083D02*
X241063D01*
X233583Y168413D02*
X241063D01*
X248705Y157835D02*
Y162165D01*
X240437Y157835D02*
Y162165D01*
Y157835D02*
X248705D01*
X240437Y162165D02*
X248705D01*
X83275Y175917D02*
Y180051D01*
Y175917D02*
X85735D01*
X90558Y171095D01*
Y153083D02*
Y171095D01*
X83275Y153083D02*
X90558D01*
X83275Y148949D02*
Y153083D01*
X75007Y148949D02*
X83275D01*
X75007D02*
Y153083D01*
X67723D02*
X75007D01*
X67723D02*
Y171095D01*
X72546Y175917D01*
X75007D01*
Y180051D01*
X83275D01*
X92810Y173209D02*
X101471D01*
X92810Y155098D02*
Y173209D01*
Y155098D02*
X101471D01*
Y173209D01*
X250905Y164866D02*
X255236D01*
X250905Y173134D02*
X255236D01*
X250905Y164866D02*
Y173134D01*
X255236Y164866D02*
Y173134D01*
X231256Y199232D02*
X236886D01*
X231256Y210768D02*
X236886D01*
Y199232D02*
Y210768D01*
X231256Y199232D02*
Y210768D01*
X306147Y199165D02*
Y203299D01*
Y199165D02*
X308608D01*
X313431Y194343D01*
Y176331D02*
Y194343D01*
X306147Y176331D02*
X313431D01*
X306147Y172197D02*
Y176331D01*
X297879Y172197D02*
X306147D01*
X297879D02*
Y176331D01*
X290596D02*
X297879D01*
X290596D02*
Y194343D01*
X295419Y199165D01*
X297879D01*
Y203299D01*
X306147D01*
X106803Y184953D02*
X118220D01*
X106803Y179047D02*
Y184953D01*
Y179047D02*
X118220D01*
Y184953D01*
X112512Y180032D02*
Y183968D01*
X110543Y182000D02*
X114480D01*
X163803Y166047D02*
X175220D01*
Y171953D01*
X163803D02*
X175220D01*
X163803Y166047D02*
Y171953D01*
X169512Y167032D02*
Y170968D01*
X167543Y169000D02*
X171480D01*
X216303Y199185D02*
Y204815D01*
X227838Y199185D02*
Y204815D01*
X216303Y199185D02*
X227838D01*
X216303Y204815D02*
X227838D01*
X227240Y162885D02*
X235901D01*
X227240Y144775D02*
Y162885D01*
Y144775D02*
X235901D01*
Y162885D01*
D100*
X109165Y183870D02*
X115858D01*
X109165Y180130D02*
Y183870D01*
Y180130D02*
X115858D01*
Y183870D01*
X166165Y167130D02*
X172858D01*
Y170870D01*
X166165D02*
X172858D01*
X166165Y167130D02*
Y170870D01*
M02*
