G04*
G04 #@! TF.GenerationSoftware,Altium Limited,Altium Designer,22.0.2 (36)*
G04*
G04 Layer_Color=8388736*
%FSLAX25Y25*%
%MOIN*%
G70*
G04*
G04 #@! TF.SameCoordinates,2399AC83-C245-47A7-85CA-B2C80BF99C82*
G04*
G04*
G04 #@! TF.FilePolarity,Negative*
G04*
G01*
G75*
%ADD25R,0.06127X0.03765*%
%ADD32R,0.05544X0.03963*%
%ADD33R,0.05610X0.01476*%
%ADD34R,0.02657X0.00984*%
%ADD35R,0.02362X0.00984*%
%ADD36C,0.01308*%
%ADD37R,0.00984X0.02362*%
%ADD38R,0.00984X0.02854*%
%ADD39C,0.01019*%
%ADD40R,0.02461X0.00984*%
%ADD41C,0.01141*%
%ADD42C,0.01206*%
%ADD49R,0.03005X0.02847*%
%ADD50R,0.02572X0.02572*%
%ADD51R,0.03162X0.02808*%
%ADD52R,0.04461X0.04540*%
%ADD53R,0.02808X0.03162*%
%ADD54R,0.03359X0.03359*%
%ADD55R,0.21784X0.22808*%
%ADD56R,0.25800X0.21587*%
%ADD57R,0.07099X0.12611*%
G04:AMPARAMS|DCode=58|XSize=79.65mil|YSize=53.28mil|CornerRadius=16.22mil|HoleSize=0mil|Usage=FLASHONLY|Rotation=0.000|XOffset=0mil|YOffset=0mil|HoleType=Round|Shape=RoundedRectangle|*
%AMROUNDEDRECTD58*
21,1,0.07965,0.02083,0,0,0.0*
21,1,0.04720,0.05328,0,0,0.0*
1,1,0.03245,0.02360,-0.01041*
1,1,0.03245,-0.02360,-0.01041*
1,1,0.03245,-0.02360,0.01041*
1,1,0.03245,0.02360,0.01041*
%
%ADD58ROUNDEDRECTD58*%
%ADD59R,0.03359X0.03359*%
%ADD60R,0.04461X0.04776*%
%ADD61R,0.03162X0.01981*%
%ADD62R,0.03300X0.01981*%
%ADD63R,0.07788X0.10446*%
%ADD64R,0.05131X0.04737*%
%ADD65R,0.02172X0.01581*%
%ADD66R,0.03353X0.01581*%
%ADD67R,0.04337X0.04140*%
%ADD68R,0.04540X0.04461*%
%ADD69C,0.24422*%
%ADD70C,0.22517*%
%ADD71R,0.22517X0.22517*%
%ADD72R,0.22517X0.22517*%
%ADD73C,0.06194*%
%ADD74R,0.06194X0.06194*%
%ADD75C,0.05800*%
%ADD76C,0.03300*%
%ADD77C,0.02800*%
%ADD78C,0.04800*%
%ADD79C,0.02300*%
G36*
X238211Y179510D02*
X238014Y179313D01*
X237522D01*
X237325Y179510D01*
Y180789D01*
X236144D01*
X235947Y180986D01*
X235947Y182167D01*
X236144Y182364D01*
X238014D01*
X238211Y182167D01*
Y179510D01*
D02*
G37*
G36*
X249919D02*
X249722Y179313D01*
X249230D01*
X249033Y179510D01*
Y181872D01*
X249230Y182069D01*
X251100D01*
X251297Y181872D01*
Y180888D01*
X251100Y180691D01*
X249919D01*
X249919Y179510D01*
D02*
G37*
G36*
X237522Y196636D02*
X238014D01*
Y196636D01*
X238211Y196439D01*
Y193781D01*
X238014Y193584D01*
X236144Y193584D01*
X235947Y193781D01*
X235947Y194962D01*
X236144Y195159D01*
X237325D01*
Y196439D01*
X237522Y196636D01*
D02*
G37*
G36*
X249230D02*
X249722D01*
X249919Y196439D01*
X249919Y195258D01*
X251100D01*
X251297Y195061D01*
Y194077D01*
X251100Y193880D01*
X249230D01*
X249033Y194077D01*
X249033Y196439D01*
X249230Y196636D01*
D02*
G37*
D25*
X272071Y192347D02*
D03*
Y183095D02*
D03*
X284071Y192374D02*
D03*
Y183122D02*
D03*
X260071Y192374D02*
D03*
Y183122D02*
D03*
D32*
X174573Y161589D02*
D03*
Y154102D02*
D03*
X165272Y161589D02*
D03*
Y154102D02*
D03*
D33*
X243624Y190435D02*
D03*
Y187974D02*
D03*
Y185513D02*
D03*
D34*
X237276Y183840D02*
D03*
Y192108D02*
D03*
D35*
X237128Y186990D02*
D03*
Y188958D02*
D03*
D36*
X237362Y194433D02*
D03*
D37*
X239687Y195455D02*
D03*
X247561D02*
D03*
Y180494D02*
D03*
X239687D02*
D03*
D38*
X241655Y195208D02*
D03*
X243624D02*
D03*
X245592D02*
D03*
Y180740D02*
D03*
X243624D02*
D03*
X241655D02*
D03*
D39*
X250731Y194446D02*
D03*
D40*
X250071Y192403D02*
D03*
Y190435D02*
D03*
Y187482D02*
D03*
Y185513D02*
D03*
Y183545D02*
D03*
D41*
X249741Y181435D02*
D03*
D42*
X237503D02*
D03*
D49*
X235535Y217000D02*
D03*
X238606D02*
D03*
D50*
X235071Y223425D02*
D03*
Y226575D02*
D03*
D51*
X241071Y226752D02*
D03*
Y223248D02*
D03*
D52*
X222071Y177406D02*
D03*
Y171595D02*
D03*
D53*
X235571Y166248D02*
D03*
X239075D02*
D03*
D54*
X246539Y160000D02*
D03*
X242602D02*
D03*
D55*
X175071Y203000D02*
D03*
X135110D02*
D03*
D56*
X155090Y289910D02*
D03*
D57*
X79141Y173161D02*
D03*
Y155839D02*
D03*
X302013Y196409D02*
D03*
Y179087D02*
D03*
D58*
X97141Y170000D02*
D03*
Y158307D02*
D03*
X231571Y159676D02*
D03*
Y147983D02*
D03*
D59*
X253071Y167032D02*
D03*
Y170968D02*
D03*
D60*
X234071Y202209D02*
D03*
Y207791D02*
D03*
D61*
X118071Y166323D02*
D03*
Y168882D02*
D03*
Y171441D02*
D03*
Y174000D02*
D03*
D62*
X105935D02*
D03*
Y171441D02*
D03*
Y168882D02*
D03*
Y166323D02*
D03*
D63*
X110679Y170161D02*
D03*
D64*
X115071Y182000D02*
D03*
X109953D02*
D03*
X166953Y169000D02*
D03*
X172071D02*
D03*
D65*
X139394Y174000D02*
D03*
Y171441D02*
D03*
Y168882D02*
D03*
X147071D02*
D03*
Y171441D02*
D03*
Y174000D02*
D03*
D66*
X143606Y168882D02*
D03*
D67*
X143232Y172721D02*
D03*
D68*
X219165Y202000D02*
D03*
X224976D02*
D03*
D69*
X382449Y321378D02*
D03*
Y53661D02*
D03*
X35992D02*
D03*
Y321378D02*
D03*
X262000Y86000D02*
D03*
D70*
X376244Y169000D02*
D03*
X42000Y214173D02*
D03*
X376244Y208000D02*
D03*
Y286000D02*
D03*
Y247000D02*
D03*
Y130000D02*
D03*
Y91000D02*
D03*
D71*
X347898Y169000D02*
D03*
Y208000D02*
D03*
Y286000D02*
D03*
Y247000D02*
D03*
Y130000D02*
D03*
Y91000D02*
D03*
D72*
X42000Y185827D02*
D03*
D73*
X218071Y160000D02*
D03*
X208071D02*
D03*
X198071D02*
D03*
D74*
X188071D02*
D03*
D75*
X262071Y161000D02*
D03*
Y169000D02*
D03*
X280071Y161000D02*
D03*
X271071D02*
D03*
Y169000D02*
D03*
X280071D02*
D03*
X72000Y143000D02*
D03*
X112000D02*
D03*
Y135000D02*
D03*
X92000D02*
D03*
Y143000D02*
D03*
X102000D02*
D03*
Y135000D02*
D03*
X82000D02*
D03*
X72000D02*
D03*
X82000Y143000D02*
D03*
X236071Y173000D02*
D03*
X101071Y182000D02*
D03*
X89071D02*
D03*
X159512Y169000D02*
D03*
X229211Y167158D02*
D03*
X32000Y135000D02*
D03*
X42000D02*
D03*
X52000D02*
D03*
X62000Y143000D02*
D03*
X52000D02*
D03*
X32000D02*
D03*
X42000D02*
D03*
X62000Y135000D02*
D03*
X298071Y161000D02*
D03*
Y169000D02*
D03*
X289071D02*
D03*
Y161000D02*
D03*
X134071Y169000D02*
D03*
D76*
X236404Y233000D02*
D03*
X232737D02*
D03*
X229071D02*
D03*
X240071D02*
D03*
D77*
X248571Y173702D02*
D03*
X245241Y177000D02*
D03*
X246071Y167000D02*
D03*
Y164000D02*
D03*
X228071Y210000D02*
D03*
X225071Y207000D02*
D03*
X228071D02*
D03*
X225071Y210000D02*
D03*
X249071Y164000D02*
D03*
Y167000D02*
D03*
D78*
X246071Y201000D02*
D03*
X254071Y188000D02*
D03*
D79*
X246237Y184000D02*
D03*
X241237D02*
D03*
X242904D02*
D03*
X244571D02*
D03*
M02*
