G04*
G04 #@! TF.GenerationSoftware,Altium Limited,Altium Designer,22.0.2 (36)*
G04*
G04 Layer_Color=8421504*
%FSLAX25Y25*%
%MOIN*%
G70*
G04*
G04 #@! TF.SameCoordinates,2399AC83-C245-47A7-85CA-B2C80BF99C82*
G04*
G04*
G04 #@! TF.FilePolarity,Positive*
G04*
G01*
G75*
%ADD19R,0.02205X0.02047*%
%ADD20R,0.01772X0.01772*%
%ADD21R,0.02362X0.02008*%
%ADD22R,0.03661X0.03740*%
%ADD23R,0.02008X0.02362*%
%ADD24R,0.02559X0.02559*%
%ADD25R,0.06127X0.03765*%
%ADD26R,0.20984X0.22008*%
%ADD27R,0.25000X0.20787*%
%ADD28R,0.06299X0.11811*%
G04:AMPARAMS|DCode=29|XSize=71.65mil|YSize=45.28mil|CornerRadius=12.22mil|HoleSize=0mil|Usage=FLASHONLY|Rotation=0.000|XOffset=0mil|YOffset=0mil|HoleType=Round|Shape=RoundedRectangle|*
%AMROUNDEDRECTD29*
21,1,0.07165,0.02083,0,0,0.0*
21,1,0.04720,0.04528,0,0,0.0*
1,1,0.02445,0.02360,-0.01041*
1,1,0.02445,-0.02360,-0.01041*
1,1,0.02445,-0.02360,0.01041*
1,1,0.02445,0.02360,0.01041*
%
%ADD29ROUNDEDRECTD29*%
%ADD30R,0.02559X0.02559*%
%ADD31R,0.03661X0.03976*%
%ADD32R,0.05544X0.03963*%
%ADD33R,0.05610X0.01476*%
%ADD34R,0.02657X0.00984*%
%ADD35R,0.02362X0.00984*%
%ADD36C,0.01308*%
%ADD37R,0.00984X0.02362*%
%ADD38R,0.00984X0.02854*%
%ADD39C,0.01019*%
%ADD40R,0.02461X0.00984*%
%ADD41C,0.01141*%
%ADD42C,0.01206*%
%ADD43R,0.02362X0.01181*%
%ADD44R,0.02500X0.01181*%
%ADD45R,0.06988X0.09646*%
%ADD46R,0.04331X0.03937*%
%ADD47R,0.01772X0.01181*%
%ADD48R,0.03740X0.03661*%
G36*
X249919Y196439D02*
X249919Y195258D01*
X251100D01*
X251297Y195061D01*
Y194077D01*
X251100Y193880D01*
X249230D01*
X249033Y194077D01*
X249033Y196439D01*
X249230Y196636D01*
X249722D01*
X249919Y196439D01*
D02*
G37*
G36*
X238014Y196636D02*
X238211Y196439D01*
Y193781D01*
X238014Y193584D01*
X236144Y193584D01*
X235947Y193781D01*
X235947Y194962D01*
X236144Y195159D01*
X237325D01*
Y196439D01*
X237522Y196636D01*
X238014D01*
Y196636D01*
D02*
G37*
G36*
X251297Y181872D02*
Y180888D01*
X251100Y180691D01*
X249919D01*
X249919Y179510D01*
X249722Y179313D01*
X249230D01*
X249033Y179510D01*
Y181872D01*
X249230Y182069D01*
X251100D01*
X251297Y181872D01*
D02*
G37*
G36*
X238211Y182167D02*
Y179510D01*
X238014Y179313D01*
X237522D01*
X237325Y179510D01*
Y180789D01*
X236144D01*
X235947Y180986D01*
X235947Y182167D01*
X236144Y182364D01*
X238014D01*
X238211Y182167D01*
D02*
G37*
G36*
X144840Y174409D02*
X144878Y174398D01*
X144914Y174379D01*
X144944Y174354D01*
X144970Y174323D01*
X144988Y174288D01*
X145000Y174250D01*
X145004Y174210D01*
Y171231D01*
X145000Y171191D01*
X144988Y171153D01*
X144970Y171118D01*
X144944Y171087D01*
X144914Y171062D01*
X144878Y171043D01*
X144840Y171031D01*
X144801Y171028D01*
X141664D01*
X141624Y171031D01*
X141586Y171043D01*
X141551Y171062D01*
X141520Y171087D01*
X141495Y171118D01*
X141476Y171153D01*
X141464Y171191D01*
X141461Y171231D01*
Y174210D01*
X141464Y174250D01*
X141476Y174288D01*
X141495Y174323D01*
X141520Y174354D01*
X141551Y174379D01*
X141586Y174398D01*
X141624Y174409D01*
X141664Y174413D01*
X144801D01*
X144840Y174409D01*
D02*
G37*
G36*
X144828Y169449D02*
X144864Y169438D01*
X144898Y169420D01*
X144927Y169396D01*
X144951Y169367D01*
X144969Y169333D01*
X144981Y169297D01*
X144984Y169259D01*
Y168505D01*
X144981Y168467D01*
X144969Y168431D01*
X144951Y168397D01*
X144927Y168368D01*
X144898Y168344D01*
X144864Y168326D01*
X144828Y168315D01*
X144790Y168311D01*
X142422D01*
X142385Y168315D01*
X142348Y168326D01*
X142315Y168344D01*
X142285Y168368D01*
X142261Y168397D01*
X142243Y168431D01*
X142232Y168467D01*
X142228Y168505D01*
Y169259D01*
X142232Y169297D01*
X142243Y169333D01*
X142261Y169367D01*
X142285Y169396D01*
X142315Y169420D01*
X142348Y169438D01*
X142385Y169449D01*
X142422Y169453D01*
X144790D01*
X144828Y169449D01*
D02*
G37*
D19*
X235535Y217000D02*
D03*
X238606D02*
D03*
D20*
X235071Y223425D02*
D03*
Y226575D02*
D03*
D21*
X241071Y226752D02*
D03*
Y223248D02*
D03*
D22*
X222071Y177406D02*
D03*
Y171595D02*
D03*
D23*
X235571Y166248D02*
D03*
X239075D02*
D03*
D24*
X246539Y160000D02*
D03*
X242602D02*
D03*
D25*
X272071Y192347D02*
D03*
Y183095D02*
D03*
X284071Y192374D02*
D03*
Y183122D02*
D03*
X260071Y192374D02*
D03*
Y183122D02*
D03*
D26*
X175071Y203000D02*
D03*
X135110D02*
D03*
D27*
X155090Y289910D02*
D03*
D28*
X79141Y173161D02*
D03*
Y155839D02*
D03*
X302013Y196409D02*
D03*
Y179087D02*
D03*
D29*
X97141Y170000D02*
D03*
Y158307D02*
D03*
X231571Y159676D02*
D03*
Y147983D02*
D03*
D30*
X253071Y167032D02*
D03*
Y170968D02*
D03*
D31*
X234071Y202209D02*
D03*
Y207791D02*
D03*
D32*
X174573Y161589D02*
D03*
Y154102D02*
D03*
X165272Y161589D02*
D03*
Y154102D02*
D03*
D33*
X243624Y190435D02*
D03*
Y187974D02*
D03*
Y185513D02*
D03*
D34*
X237276Y183840D02*
D03*
Y192108D02*
D03*
D35*
X237128Y186990D02*
D03*
Y188958D02*
D03*
D36*
X237362Y194433D02*
D03*
D37*
X239687Y195455D02*
D03*
X247561D02*
D03*
Y180494D02*
D03*
X239687D02*
D03*
D38*
X241655Y195208D02*
D03*
X243624D02*
D03*
X245592D02*
D03*
Y180740D02*
D03*
X243624D02*
D03*
X241655D02*
D03*
D39*
X250731Y194446D02*
D03*
D40*
X250071Y192403D02*
D03*
Y190435D02*
D03*
Y187482D02*
D03*
Y185513D02*
D03*
Y183545D02*
D03*
D41*
X249741Y181435D02*
D03*
D42*
X237503D02*
D03*
D43*
X118071Y166323D02*
D03*
Y168882D02*
D03*
Y171441D02*
D03*
Y174000D02*
D03*
D44*
X105935D02*
D03*
Y171441D02*
D03*
Y168882D02*
D03*
Y166323D02*
D03*
D45*
X110679Y170161D02*
D03*
D46*
X115071Y182000D02*
D03*
X109953D02*
D03*
X166953Y169000D02*
D03*
X172071D02*
D03*
D47*
X139394Y174000D02*
D03*
Y171441D02*
D03*
Y168882D02*
D03*
X147071D02*
D03*
Y171441D02*
D03*
Y174000D02*
D03*
D48*
X219165Y202000D02*
D03*
X224976D02*
D03*
M02*
